<svg xmlns="http://www.w3.org/2000/svg" viewBox="0 0 5000 5000" role="img" aria-label="Sayr logo" style="fill-rule:evenodd;clip-rule:evenodd">
    <path
        d="M2616.835,206.326c221.574,-279.539 1356.778,11.143 1012.569,405.733c-627.971,719.885 -992.64,1215.012 -340.463,1173.098c652.177,-41.913 641.375,505.084 421.61,666.814c-908.028,668.234 -1228.018,1941.949 -1315.043,2388.13c-5.294,29.318 -26.875,53.034 -55.566,61.061c-28.691,8.027 -59.445,-1.046 -79.185,-23.36c-83.111,-93.831 -195.739,-221.149 -267.895,-302.717c-42.587,-48.142 -53.205,-116.691 -27.179,-175.462c118.808,-268.721 409.972,-1013.555 -17.426,-1003.881c-521.333,11.8 -1076.417,403.429 -631.533,-319.294c444.885,-722.724 910.824,-2378.996 1300.11,-2870.122Z"
        fill="#000000"
    />
    <style>
        path { fill: #000000; }
        @media (prefers-color-scheme: dark) {
            path { fill: #ffffff; }
        }
    </style>
</svg>
